<?xml version="1.0" encoding="iso-8859-1"?>
<!-- Uploaded to: SVG Repo, www.svgrepo.com, Generator: SVG Repo Mixer Tools -->
<svg version="1.1" id="Layer_1" xmlns="http://www.w3.org/2000/svg" xmlns:xlink="http://www.w3.org/1999/xlink" 
	 viewBox="0 0 392.663 392.663" xml:space="preserve">
<g>
	<path style="fill:#FFFFFF;" d="M350.707,100.881H41.826c-11.055,0-20.04,8.986-20.04,20.04v133.042
		c0,11.055,8.986,20.04,20.04,20.04h39.111v-17.842h-3.685c-6.012,0-10.925-4.848-10.925-10.925c0-6.077,4.848-10.925,10.925-10.925
		H315.41c6.012,0,10.925,4.848,10.925,10.925c0,6.077-4.848,10.925-10.925,10.925h-3.685v17.778h39.111
		c11.055,0,20.04-8.986,20.04-20.04V120.857C370.747,109.802,361.762,100.881,350.707,100.881z"/>
	<rect x="102.659" y="256.032" style="fill:#FFFFFF;" width="187.152" height="114.747"/>
</g>
<rect x="102.659" y="21.883" style="fill:#56ACE0;" width="187.152" height="57.083"/>
<polyline style="fill:#FFC10D;" points="348.962,252.089 348.962,122.667 43.572,122.667 43.572,252.089 "/>
<g>
	<path style="fill:#194F82;" d="M259.556,329.665H132.978c-6.012,0-10.925,4.848-10.925,10.925c0,6.012,4.848,10.925,10.925,10.925
		h126.578c6.012,0,10.925-4.848,10.925-10.925S265.568,329.665,259.556,329.665z"/>
	<path style="fill:#194F82;" d="M259.556,275.426H132.978c-6.012,0-10.925,4.848-10.925,10.925c0,6.012,4.848,10.925,10.925,10.925
		h126.578c6.012,0,10.925-4.848,10.925-10.925S265.568,275.426,259.556,275.426z"/>
	<path style="fill:#194F82;" d="M336.162,116.784c-6.012,0-10.925,4.848-10.925,10.925v4.913c0,6.012,4.848,10.925,10.925,10.925
		c6.012,0,10.925-4.848,10.925-10.925v-4.913C347.022,121.632,342.174,116.784,336.162,116.784z"/>
	<path style="fill:#194F82;" d="M336.162,160.614c-6.012,0-10.925,4.848-10.925,10.925v4.978c0,6.012,4.848,10.925,10.925,10.925
		c6.012,0,10.925-4.848,10.925-10.925v-4.978C347.022,165.463,342.174,160.614,336.162,160.614z"/>
	<path style="fill:#194F82;" d="M350.707,79.095h-39.111V10.958c0-6.012-4.848-10.925-10.925-10.925H91.798
		c-6.012,0-10.925,4.848-10.925,10.925V79.03H41.826C18.812,79.03,0,97.713,0,120.857v133.042c0,23.014,18.747,41.826,41.826,41.826
		h39.111v85.98c0,6.012,4.848,10.925,10.925,10.925H300.8c6.012,0,10.925-4.848,10.925-10.925v-86.044h39.111
		c23.014,0,41.826-18.747,41.826-41.826V120.857C392.533,97.778,373.786,79.095,350.707,79.095z M102.659,21.883H289.81v57.083
		H102.659V21.883z M102.659,370.844V256.032H289.81v114.812H102.659z M370.747,253.834c0,11.055-8.986,20.04-20.04,20.04h-39.111
		v-17.842h3.685c6.012,0,10.925-4.848,10.925-10.925c0-6.012-4.848-10.925-10.925-10.925H77.188
		c-6.012,0-10.925,4.848-10.925,10.925c0,6.012,4.848,10.925,10.925,10.925h3.685v17.842H41.826c-11.055,0-20.04-8.986-20.04-20.04
		V120.857c0-11.055,8.986-20.04,20.04-20.04h308.945c11.055,0,20.04,8.986,20.04,20.04v132.978H370.747z"/>
</g>
</svg>